<svg width="220" height="220" viewBox="240 320 520 390" fill="none" xmlns="http://www.w3.org/2000/svg">
  <path d="M329.675 526.317C307.214 503.81 285.106 481.438 262.715 459.354C247.894 444.737 246.967 420.327 261.596 405.38C281.34 385.206 301.272 365.209 321.413 345.433C337.955 329.191 362.22 330.587 378.353 347.272C398.566 368.178 419.482 388.404 440.049 408.969C456.5 425.417 472.841 441.975 489.309 458.406C512.959 482.003 536.711 505.498 560.359 529.097C573.07 541.783 585.769 554.485 598.265 567.382C611.121 580.65 611.353 604.82 598.464 618C577.885 639.046 557.125 659.922 536.111 680.534C521.521 694.846 497.96 694.262 482.914 679.301C446.917 643.507 411.156 607.474 375.256 571.581C360.196 556.523 345.028 541.573 329.675 526.317Z" fill="#F7F4EE"/>
  <path d="M557.619 387.583C578.703 350.32 610.51 332.334 652.706 335.576C685.948 338.129 711.621 355.125 727.831 384.278C746.569 417.977 745.281 452.18 724.83 484.708C709.664 508.832 687.195 522.869 658.757 527.618C611.826 535.456 565.728 506.539 551.585 461.591C543.587 436.171 545.978 411.714 557.619 387.583Z" fill="#F7F4EE"/>
</svg>
